# xmcd CD database file
#
# Track frame offsets:
#	150
#	14206
#	26907
#	38503
#	51271
#	66125
#	76878
#	91003
#	103691
#	119016
#	132617
#	144345
#	155389
#	168452
#	200560
#	245407
#	281677
#
# Disc length: 4222 seconds
#
# Revision: 1
# Processed by: cddbd v1.5.2PL0 Copyright (c) Steve Scherf et al.
# Submitted via: CDex 1.70beta2
#
DISCID=f3107c11
DTITLE=Wardell Gray - D4 - The Wardell Gray Story - Farmer's Market - Proper
DYEAR=1952
DGENRE=Swing
TTITLE0=April Skies (with Art Farmer)
TTITLE1=Bright Boy (with Art Farmer)
TTITLE2=Jackie (with Art Farmer)
TTITLE3=Farmer's Market (with Art Farmer)
TTITLE4=Sweet and Lovely (with Art Farmer)
TTITLE5=Loverman (with Art Farmer)
TTITLE6=The Jeep is Jumpin' (with Clark Terry, Juan Tizol, Willie Smith, Harry Carney and Billy Strayhorn) (Louis Bellson Just Jazz All Stars)
TTITLE7=Johnny Come Lately (with Clark Terry, Juan Tizol, Willie Smith, Harry Carney and Billy Strayhorn) (Louis Bellson Just Jazz All Stars)
TTITLE8=Punkin' (with Clark Terry, Juan Tizol, Willie Smith, Harry Carney and Billy Strayhorn) (Louis Bellson Just Jazz All Stars)
TTITLE9=The Rubaiyat (with Dexter Gordon)
TTITLE10=I Hear You Knockin' (with Dexter Gordon)
TTITLE11=Jungle, Jangle, Jump (with Dexter Gordon)
TTITLE12=Citizen's Bop (with Dexter Gordon)
TTITLE13=Bernie's Tune (with Art Farmer and Shelly Manne) (Wardell Gray Quintet)
TTITLE14=The Squirrel (with Art Farmer and Shelly Manne) (Wardell Gray Quintet)
TTITLE15=Taking a Chance on Love (with Art Farmer and Shelly Manne) (Wardell Gray Quintet)
TTITLE16=Get Happy (with Art Farmer and Shelly Manne) (Wardell Gray Quintet)
EXTD=YEAR: 1952
EXTT0=
EXTT1=
EXTT2=
EXTT3=
EXTT4=
EXTT5=
EXTT6=
EXTT7=
EXTT8=
EXTT9=
EXTT10=
EXTT11=
EXTT12=
EXTT13=
EXTT14=
EXTT15=
EXTT16=
PLAYORDER=
